HIERARCHY
ROOT reference
{
  OFFSET 0 0 0
  CHANNELS 6 Xposition Yposition Zposition Zrotation Xrotation Yrotation
  JOINT Hips
  {
    OFFSET 10.0328 97.7725 205.674
    CHANNELS 6 Xposition Yposition Zposition Zrotation Xrotation Yrotation
    JOINT Spine
    {
      OFFSET 0 8.22665 0
      CHANNELS 6 Xposition Yposition Zposition Zrotation Xrotation Yrotation
      JOINT Spine1
      {
        OFFSET 0 24.451 0
        CHANNELS 6 Xposition Yposition Zposition Zrotation Xrotation Yrotation
        JOINT Neck
        {
          OFFSET 0 24.3506 2.21369
          CHANNELS 6 Xposition Yposition Zposition Zrotation Xrotation Yrotation
          JOINT Head
          {
            OFFSET 0 14.0455 -2.0065
            CHANNELS 6 Xposition Yposition Zposition Zrotation Xrotation Yrotation
            End Site
            {
              OFFSET 0 25.0812 0
            }
          }
        }
        JOINT LeftShoulder
        {
          OFFSET 4.0594 22.2558 -0.272799
          CHANNELS 6 Xposition Yposition Zposition Zrotation Xrotation Yrotation
          JOINT LeftArm
          {
            OFFSET 12.0298 0 0
            CHANNELS 6 Xposition Yposition Zposition Zrotation Xrotation Yrotation
            JOINT LeftForeArm
            {
              OFFSET 31.2689 0 0
              CHANNELS 6 Xposition Yposition Zposition Zrotation Xrotation Yrotation
              JOINT LeftHand
              {
                OFFSET 28.0275 0 0
                CHANNELS 6 Xposition Yposition Zposition Zrotation Xrotation Yrotation
                End Site
                {
                  OFFSET 15.0487 0 0
                }
              }
            }
          }
        }
        JOINT RightShoulder
        {
          OFFSET -3.96464 22.2558 -0.272799
          CHANNELS 6 Xposition Yposition Zposition Zrotation Xrotation Yrotation
          JOINT RightArm
          {
            OFFSET -12.0298 0 0
            CHANNELS 6 Xposition Yposition Zposition Zrotation Xrotation Yrotation
            JOINT RightForeArm
            {
              OFFSET -31.2689 0 0
              CHANNELS 6 Xposition Yposition Zposition Zrotation Xrotation Yrotation
              JOINT RightHand
              {
                OFFSET -28.0275 0 0
                CHANNELS 6 Xposition Yposition Zposition Zrotation Xrotation Yrotation
                End Site
                {
                  OFFSET -15.0487 0 0
                }
              }
            }
          }
        }
      }
    }
    JOINT LeftUpLeg
    {
      OFFSET 10.0325 0 0
      CHANNELS 6 Xposition Yposition Zposition Zrotation Xrotation Yrotation
      JOINT LeftLeg
      {
        OFFSET 0 -38.4033 0
        CHANNELS 6 Xposition Yposition Zposition Zrotation Xrotation Yrotation
        JOINT LeftFoot
        {
          OFFSET 0 -44.1642 0
          CHANNELS 6 Xposition Yposition Zposition Zrotation Xrotation Yrotation
          JOINT LeftToeBase
          {
            OFFSET 0 -6.52112 15.0487
            CHANNELS 6 Xposition Yposition Zposition Zrotation Xrotation Yrotation
            End Site
            {
              OFFSET 0 0 4.013
            }
          }
        }
      }
    }
    JOINT RightUpLeg
    {
      OFFSET -10.0325 0 0
      CHANNELS 6 Xposition Yposition Zposition Zrotation Xrotation Yrotation
      JOINT RightLeg
      {
        OFFSET 0 -38.4033 0
        CHANNELS 6 Xposition Yposition Zposition Zrotation Xrotation Yrotation
        JOINT RightFoot
        {
          OFFSET 0 -44.1642 0
          CHANNELS 6 Xposition Yposition Zposition Zrotation Xrotation Yrotation
          JOINT RightToeBase
          {
            OFFSET 0 -6.52112 15.0487
            CHANNELS 6 Xposition Yposition Zposition Zrotation Xrotation Yrotation
            End Site
            {
              OFFSET 0 0 4.013
            }
          }
        }
      }
    }
  }
}
MOTION
Frames:	4
Frame Time:	0.004
0 0 0 0 0 -0 -24.4383 85.349 -209.36 -0.215561 -1.6305 3.6075 3.55271e-015 8.22665 -2.84217e-014 -0.276765 -5.76252 0.0845228 3.55271e-015 24.451 0 2.21792 1.21357 0.073308 -1.77636e-015 24.3506 2.21369 9.90423 21.093 12.701 -1.42109e-014 14.0455 -2.0065 -6.05609 3.54224 13.019 4.0594 22.2558 -0.272799 20.1684 -0.0422988 -6.02326 12.0298 0 -2.84217e-014 -17.0409 -2.03451 -0.444693 31.2689 5.68434e-014 -2.84217e-014 1.53017 -3.78318 1.79448 28.0275 -2.84217e-014 0 24.2189 -2.38115 6.68364 -3.96464 22.2558 -0.272799 -16.3446 -3.88223 3.22061 -12.0298 0 0 13.1027 1.59171 7.71098 -31.2689 0 2.84217e-014 -0.0483293 -1.20298 -4.8401 -28.0275 0 -2.84217e-014 -3.9852 -1.1613 -1.24785 10.0325 0 0 -1.44279 8.24557 -1.11499 -1.77636e-015 -38.4033 0 -3.13904 2.03848 -1.82833 0 -44.1642 -2.84217e-014 5.52335 -9.52453 18.7547 0 -6.52112 15.0487 -1.49089e-016 1.98785e-016 -9.54166e-015 -10.0325 0 -2.84217e-014 -1.50507 -1.397 1.46531 0 -38.4033 0 1.59804 18.8297 0.202944 7.10543e-015 -44.1642 -2.84217e-014 0.297528 -16.6901 -14.5241 0 -6.52112 15.0487 0 1.98785e-016 -0 
0 0 0 0 0 -0 -24.4383 85.349 -209.36 -0.215561 -1.6305 3.6075 3.55271e-015 8.22665 -2.84217e-014 -0.276765 -5.76252 0.0845228 3.55271e-015 24.451 0 2.22393 1.21357 0.073308 0 24.3506 2.21369 9.90474 21.1063 12.6892 0 14.0455 -2.0065 -6.04458 3.51746 13.008 4.0594 22.2558 -0.272799 20.1598 -0.0292204 -6.02326 12.0298 0 2.84217e-014 -17.0409 -2.03451 -0.444693 31.2689 -2.84217e-014 0 1.53315 -3.78318 1.79448 28.0275 -2.84217e-014 -2.84217e-014 24.2303 -2.38115 6.68364 -3.96464 22.2558 -0.272799 -16.3453 -3.85823 3.22966 -12.0298 -2.84217e-014 2.84217e-014 13.1139 1.57392 7.70879 -31.2689 -2.84217e-014 2.84217e-014 -0.0481929 -1.20137 -4.8401 -28.0275 2.84217e-014 2.84217e-014 -3.98517 -1.15971 -1.24785 10.0325 0 0 -1.43956 8.24551 -1.13754 0 -38.4033 -2.84217e-014 -3.14158 2.03254 -1.76213 0 -44.1642 -2.84217e-014 5.5434 -9.5134 18.7205 0 -6.52112 15.0487 9.93923e-017 -3.97569e-016 9.54166e-015 -10.0325 0 -2.84217e-014 -1.5052 -1.4101 1.44656 0 -38.4033 0 1.58495 18.8297 0.192817 3.55271e-015 -44.1642 -2.84217e-014 0.346274 -16.6827 -14.4896 0 -6.52112 15.0487 2.48481e-017 -9.93923e-017 -0 
0 0 0 0 0 -0 -24.4383 85.349 -209.36 -0.215561 -1.6305 3.6075 3.55271e-015 8.22665 -2.84217e-014 -0.276773 -5.75713 0.084522 1.77636e-015 24.451 0 2.23022 1.21357 0.073308 3.55271e-015 24.3506 2.21369 9.8942 21.0782 12.6907 0 14.0455 -2.0065 -6.00186 3.52804 13.0116 4.0594 22.2558 -0.272799 20.1623 -0.0320056 -6.02326 12.0298 -2.84217e-014 0 -17.0408 -2.02789 -0.444691 31.2689 0 0 1.55105 -3.78867 1.79449 28.0275 2.84217e-014 0 24.1899 -2.38115 6.68379 -3.96464 22.2558 -0.272799 -16.3449 -3.86905 3.22718 -12.0298 0 0 13.1274 1.57975 7.70109 -31.2689 0 2.84217e-014 -0.0470408 -1.18776 -4.84008 -28.0275 -2.84217e-014 2.84217e-014 -3.97032 -1.14675 -1.24785 10.0325 0 0 -1.44133 8.24555 -1.12519 1.77636e-015 -38.4033 0 -3.14109 2.0286 -1.77914 3.55271e-015 -44.1642 2.84217e-014 5.49832 -9.51966 18.751 7.10543e-015 -6.52112 15.0487 0 0 -0 -10.0325 0 -2.84217e-014 -1.50444 -1.40676 1.48098 0 -38.4033 -2.84217e-014 1.5981 18.8207 0.147388 0 -44.1642 2.84217e-014 0.394325 -16.6754 -14.4786 1.42109e-014 -6.52112 15.0487 -4.96962e-017 0 1.59028e-015 
0 0 0 0 0 -0 -24.4383 85.349 -209.365 -0.21555 -1.6305 3.60788 0 8.22665 0 -0.276796 -5.7518 0.0843732 -1.77636e-015 24.451 0 2.24327 1.21357 0.073308 1.77636e-015 24.3506 2.21369 9.8177 21.281 12.6162 0 14.0455 -2.0065 -5.94434 3.17232 12.9374 4.0594 22.2558 -0.272799 20.151 -0.0315515 -6.02326 12.0298 -2.84217e-014 2.84217e-014 -17.041 -2.04397 -0.444695 31.2689 0 2.84217e-014 1.54021 -3.76994 1.79445 28.0275 0 2.84217e-014 24.1635 -2.36746 6.66667 -3.96464 22.2558 -0.272799 -16.3424 -3.86904 3.23499 -12.0298 0 0 13.1383 1.57708 7.69236 -31.2689 -2.84217e-014 0 -0.0457971 -1.17308 -4.84005 -28.0275 0 2.84217e-014 -3.97395 -1.13156 -1.2535 10.0325 1.42109e-014 0 -1.44043 8.24551 -1.13855 -1.77636e-015 -38.4033 0 -3.14046 2.04807 -1.77984 0 -44.1642 -2.84217e-014 5.54084 -9.53185 18.7423 -7.10543e-015 -6.52112 15.0487 -4.96962e-017 0 -0 -10.0325 1.42109e-014 0 -1.50554 -1.41125 1.43158 3.55271e-015 -38.4033 0 1.57739 18.8429 0.225178 0 -44.1642 0 0.341221 -16.6696 -14.489 0 -6.52112 15.0487 -2.75869e-033 9.93923e-017 1.59028e-015 
